<svg id="sun" enable-background="new 0 0 300 300" height="512" viewBox="0 0 300 300" width="512" xmlns="http://www.w3.org/2000/svg" xmlns:xlink="http://www.w3.org/1999/xlink"><linearGradient id="SVGID_1_" gradientUnits="userSpaceOnUse" x1="61.594" x2="249.663" y1="254.664" y2="66.595"><stop offset="0" stop-color="#107eff"/><stop offset="1" stop-color="#8f16ff"/></linearGradient><g><path d="m229.337 56.658c-.016-2.37 1.893-4.304 4.263-4.32s4.304 1.893 4.32 4.263-1.893 4.304-4.263 4.32-4.304-1.893-4.32-4.263zm-167.68.263c2.37-.016 4.279-1.95 4.263-4.32s-1.95-4.279-4.32-4.263-4.279 1.95-4.263 4.32 1.95 4.279 4.32 4.263zm-4.057 183.417c-2.37.016-4.279 1.95-4.263 4.32s1.95 4.279 4.32 4.263 4.279-1.95 4.263-4.32-1.949-4.279-4.32-4.263zm172-16c-2.37.016-4.279 1.95-4.263 4.32s1.95 4.279 4.32 4.263 4.279-1.95 4.263-4.32-1.949-4.279-4.32-4.263zm24 36c-2.37.016-4.279 1.95-4.263 4.32s1.95 4.279 4.32 4.263 4.279-1.95 4.263-4.32-1.949-4.279-4.32-4.263zm8-36c-2.37.016-4.279 1.95-4.263 4.32s1.95 4.279 4.32 4.263 4.279-1.95 4.263-4.32-1.949-4.279-4.32-4.263zm-13.372-16.331c-1.816 3.145-5.07 5.023-8.703 5.023h-52.623c-1.892 1.211-3.829 2.351-5.83 3.395l-26.289 45.531c-1.816 3.146-5.07 5.025-8.703 5.025s-6.887-1.879-8.703-5.025l-26.07-45.15c-.06-.104-.061-.221-.111-.329-2.039-1.059-4.013-2.214-5.939-3.447h-52.623c-3.633 0-6.887-1.879-8.703-5.023-1.816-3.146-1.816-6.904 0-10.051l25.879-44.822c.119-.206.304-.336.451-.512-.056-1.198-.182-2.379-.182-3.591 0-1.216.126-2.399.182-3.601-.246-.244-.465-.522-.647-.836l-25.684-44.488c-1.816-3.146-1.816-6.904 0-10.051 1.816-3.145 5.07-5.023 8.703-5.023h51.98c.171 0 .317.077.482.097 1.975-1.271 4.005-2.457 6.099-3.544.05-.107.05-.224.111-.329l26.07-45.15c1.816-3.146 5.07-5.025 8.703-5.025s6.887 1.879 8.703 5.025l26.289 45.531c2.001 1.043 3.938 2.183 5.83 3.395h52.623c3.633 0 6.887 1.879 8.703 5.023 1.816 3.146 1.816 6.904 0 10.051l-26.318 45.585c.049 1.116.169 2.213.169 3.341s-.12 2.225-.169 3.341l26.318 45.585c1.819 3.144 1.819 6.902.002 10.049zm-50.947-114.977c11.323 10.361 19.519 24.053 22.956 39.555l21.062-36.481c.535-.926.18-1.742 0-2.051-.176-.307-.707-1.023-1.773-1.023zm16.799 56c0-37.496-30.504-68-68-68s-68 30.504-68 68 30.504 68 68 68 68-30.504 68-68zm-90.812-72.49c7.205-2.272 14.865-3.509 22.812-3.509 7.946 0 15.606 1.237 22.811 3.509l-21.037-36.435c-.535-.926-1.418-1.025-1.773-1.025s-1.238.1-1.773 1.025zm-28.39 128.49c-11.322-10.361-19.519-24.052-22.956-39.553l-21.062 36.479c-.535.926-.18 1.742 0 2.051.176.307.707 1.023 1.773 1.023zm74.012 16.491c-7.205 2.272-14.865 3.509-22.811 3.509s-15.606-1.237-22.812-3.509l21.038 36.435c.535.926 1.418 1.025 1.773 1.025s1.238-.1 1.773-1.025zm21.186-144.491c1.219 0 2.418-.553 3.203-1.6l12-16c1.328-1.768.969-4.275-.801-5.6-1.766-1.326-4.27-.963-5.598.799l-12 16c-1.328 1.768-.969 4.275.801 5.6.719.541 1.559.801 2.395.801zm-91.196 145.6-12 16c-1.328 1.768-.969 4.275.801 5.6.719.541 1.559.801 2.395.801 1.219 0 2.418-.553 3.203-1.6l12-16c1.328-1.768.969-4.275-.801-5.6-1.762-1.326-4.273-.965-5.598.799zm0-147.199c.785 1.047 1.984 1.6 3.203 1.6.836 0 1.676-.26 2.395-.801 1.77-1.324 2.129-3.832.801-5.6l-12-16c-1.324-1.764-3.832-2.131-5.598-.799-1.77 1.324-2.129 3.832-.801 5.6zm94.399 147.199c-1.328-1.768-3.832-2.131-5.598-.799-1.77 1.324-2.129 3.832-.801 5.6l12 16c.785 1.047 1.984 1.6 3.203 1.6.836 0 1.676-.26 2.395-.801 1.77-1.324 2.129-3.832.801-5.6zm36.801-73.6c0 2.209 1.789 4 4 4h20c2.211 0 4-1.791 4-4s-1.789-4-4-4h-20c-2.211 0-4 1.791-4 4zm-168 0c0-2.209-1.789-4-4-4h-20c-2.211 0-4 1.791-4 4s1.789 4 4 4h20c2.211 0 4-1.791 4-4zm47.52-24.692c-2.37.016-4.279 1.95-4.263 4.32s1.95 4.279 4.32 4.263 4.279-1.95 4.263-4.32-1.949-4.279-4.32-4.263zm72 0c-2.37.016-4.279 1.95-4.263 4.32s1.95 4.279 4.32 4.263 4.279-1.95 4.263-4.32-1.949-4.279-4.32-4.263zm-23.52 12.692h-24c-2.209 0-4 1.791-4 4 0 8.836 7.163 16 16 16s16-7.164 16-16c0-2.209-1.791-4-4-4z" fill="url(#SVGID_1_)"/></g></svg>